<svg xmlns="http://www.w3.org/2000/svg" width="60.065" height="61.091" viewBox="0 0 60.065 61.091"><path d="M60.065,30.515A30.287,30.287,0,0,0,30.033,0,30.287,30.287,0,0,0,0,30.515,30.735,30.735,0,0,0,10.632,53.768c.06.061.12.061.12.122.541.428,1.081.855,1.682,1.283a8.043,8.043,0,0,1,.841.668,29.564,29.564,0,0,0,33.642,0c.295-.179.535-.42.835-.607.541-.424,1.141-.851,1.682-1.279.06-.061.12-.061.12-.122A31.285,31.285,0,0,0,60.065,30.515ZM30.033,57.246a25.771,25.771,0,0,1-15.076-4.883,12.637,12.637,0,0,1,.3-1.462,16.071,16.071,0,0,1,1.562-3.784A13.4,13.4,0,0,1,19.221,44a16.906,16.906,0,0,1,3.063-2.44,15.017,15.017,0,0,1,3.664-1.527,15.333,15.333,0,0,1,4.084-.546A15.571,15.571,0,0,1,41.025,43.94a15.316,15.316,0,0,1,3.244,4.945,16.457,16.457,0,0,1,.9,3.478,26.088,26.088,0,0,1-15.136,4.883Zm-9.19-28.255a10.169,10.169,0,0,1,0-7.816,10.835,10.835,0,0,1,2.162-3.234,10.643,10.643,0,0,1,3.183-2.2,9.232,9.232,0,0,1,3.844-.794,9.04,9.04,0,0,1,3.844.794,10.714,10.714,0,0,1,3.183,2.2,10.884,10.884,0,0,1,2.162,3.234A9.662,9.662,0,0,1,40,25.082a9.436,9.436,0,0,1-.781,3.906,10.854,10.854,0,0,1-2.162,3.238,10.655,10.655,0,0,1-3.183,2.2,10.034,10.034,0,0,1-7.748,0,10.655,10.655,0,0,1-3.183-2.2,9.66,9.66,0,0,1-2.1-3.238Zm27.87,20.259c0-.122-.06-.183-.06-.305a20.074,20.074,0,0,0-2.583-5.368,18.511,18.511,0,0,0-4.084-4.334,19.474,19.474,0,0,0-3.9-2.321,10.628,10.628,0,0,0,1.742-1.462,16,16,0,0,0,2.343-2.993,14.017,14.017,0,0,0,1.982-7.384A14.245,14.245,0,0,0,35.5,11.836a14.458,14.458,0,0,0-11.052,0,13.623,13.623,0,0,0-4.5,3.112,14.682,14.682,0,0,0-3,4.578,14.376,14.376,0,0,0-1.081,5.613,13.489,13.489,0,0,0,.541,3.845,14.161,14.161,0,0,0,1.5,3.539,13.846,13.846,0,0,0,2.343,2.993,10.556,10.556,0,0,0,1.8,1.462,19.158,19.158,0,0,0-3.9,2.383,21,21,0,0,0-4.084,4.273,19.223,19.223,0,0,0-2.583,5.368.674.674,0,0,0-.06.305A26.76,26.76,0,0,1,30.033,3.784a26.76,26.76,0,0,1,18.68,45.467Z"/></svg>