<svg xmlns="http://www.w3.org/2000/svg" width="56.502" height="57.727" viewBox="0 0 56.502 57.727"><defs><style>.a{fill:none;stroke:#000;stroke-linecap:round;stroke-linejoin:round;stroke-width:3px;}</style></defs><path class="a" d="M25.816,14.568,16.793,3.915a2.8,2.8,0,0,0-4.156.016l-7.42,7.6a7.457,7.457,0,0,0-1.563,8.312,78.816,78.816,0,0,0,36.17,37.046,7.041,7.041,0,0,0,8.119-1.6l7.49-7.674a2.956,2.956,0,0,0,.005-4.267l-10.456-9.18a2.827,2.827,0,0,0-3.889.289l-3.638,3.726a1.212,1.212,0,0,1-1.475.24,39.283,39.283,0,0,1-14.3-14.641,1.284,1.284,0,0,1,.235-1.511l3.627-3.713a3,3,0,0,0,.269-4Z" transform="translate(-1.343 -1.498)"/></svg>